<svg id="圖層_1" data-name="圖層 1" xmlns="http://www.w3.org/2000/svg" viewBox="0 0 306.38298 306.38298"><rect width="306.38298" height="306.38298" rx="16" style="fill:#1c1d1d"/><path d="M225.92437,113.83416c13.87824-13.91277,43.19169-7.34891,49.87351-2.22766,6.683,5.12006-8.90948,19.13887-22.67932,23.4703a39.43656,39.43656,0,0,1-25.71941-1.02209Z" style="fill:#231815;stroke:#fff;stroke-miterlimit:10;stroke-width:3.3768148121871366px"/><path d="M226.438,128.20439l-.249-10.73329c11.19671-7.34652,37.62136-5.0593,39.85974-1.9775,2.39922,3.301-8.97737,9.72907-19.04,12.91332-6.764,2.1395-15.81642-.02979-20.57076-.20253" style="fill:#fff;stroke:#fff;stroke-miterlimit:10;stroke-width:1.1912652254104614px"/><path d="M80.45862,113.83416c-13.87824-13.91277-43.19171-7.34891-49.87351-2.22766-6.683,5.12006,8.90947,19.13887,22.6793,23.4703a39.43656,39.43656,0,0,0,25.71941-1.02209Z" style="fill:#231815;stroke:#fff;stroke-miterlimit:10;stroke-width:3.3768148121871366px"/><path d="M79.945,128.20439l.249-10.73329c-11.1967-7.34652-37.62135-5.0593-39.85973-1.9775-2.398,3.301,8.97737,9.72907,19.04117,12.91332,6.76282,2.1395,15.81524-.02979,20.56959-.20253" style="fill:#fff;stroke:#fff;stroke-miterlimit:10;stroke-width:1.1912652254104614px"/><path d="M241.63847,182.39467a1.38081,1.38081,0,0,1-.10644-.57178c1.32156-24.78783.4124-60.26258-22.63-81.95671-1.03363-.97386-2.11438-1.90447-3.22247-2.8102.30247-10.96984-2.18359-21.60259-1.50653-25.22823,1.27968-6.84621,7.89737-6.62939,7.59316-10.6273-.3048-3.99667-12.26864-8.421-20.946-4.64945-8.67681,3.77273-9.0357,19.75592-13.144,23.92651-3.79716,3.85569-7.84909-.5736-14.5424-.08783A152.50976,152.50976,0,0,0,153.194,79.14657a140.49153,140.49153,0,0,0-28.60607,2.71452,5.0798,5.0798,0,0,1-2.22606-1.38358c-4.10893-4.17059-4.46724-20.15378-13.14463-23.92651-8.67681-3.77157-20.64065.65278-20.946,4.64945-.30363,3.99791,6.31406,3.78109,7.59316,10.6273.62064,3.32164-1.40882,12.52661-1.52224,22.48179a61.47406,61.47406,0,0,0-6.86781,5.55664c-23.0319,21.69413-23.93989,57.16888-22.63055,81.96623a1.31725,1.31725,0,0,1-.09423.56226c-5.44852,13.52563-5.55439,25.55978-.31934,35.751,12.93756,25.21078,55.40256,31.26955,88.7638,31.90452,33.36124-.635,75.82624-6.69374,88.76264-31.90452C247.19345,207.95445,247.08584,195.9203,241.63847,182.39467Z" style="fill:#231815;stroke:#fff;stroke-width:3.3768148121871366px"/><rect x="57.34093" y="76.24403" width="191.70198" height="176.7087" style="fill:none"/><path d="M105.10816,113.11177s5.481-8.49729,14.62992-6.00277c8.00293,2.1824,9.22159,7.76942,9.22159,7.76942" style="fill:none;stroke:#fff;stroke-linecap:round;stroke-linejoin:round;stroke-width:3.3768148121871366px"/><path d="M114.27471,121.31626c8.40437-1.15433,14.62277,3.4797,18.3955,10.53795,8.49731,15.89861,4.58161,44.09468-14.71569,46.09719-27.86369,2.88762-26.37223-53.51639-3.67981-56.63514" style="fill:#fff"/><path d="M114.27471,121.31626c8.40437-1.15433,14.62277,3.4797,18.3955,10.53795,8.49731,15.89861,4.58161,44.09468-14.71569,46.09719C90.09083,180.839,91.58229,124.435,114.27471,121.31626Z" style="fill:none;stroke:#fff;stroke-miterlimit:10;stroke-width:1.179352584517147px"/><path d="M110.68173,131.14884c15.86645,2.60649,13.62092,40.6019-.89345,41.36431-16.97553.89225-15.4126-44.04226.89345-41.36431" style="fill:#231815"/><path d="M177.42283,113.92433s5.481-8.49729,14.62992-6.00277c8.00292,2.1824,9.22158,7.76942,9.22158,7.76942" style="fill:none;stroke:#fff;stroke-linecap:round;stroke-linejoin:round;stroke-width:3.3768148121871366px"/><path d="M186.59,121.31626c8.40437-1.15433,14.62277,3.4797,18.3955,10.53795,8.49731,15.89861,4.58162,44.09468-14.71569,46.09719C162.4061,180.839,163.89757,124.435,186.59,121.31626" style="fill:#fff"/><path d="M186.59,121.31626c8.40437-1.15433,14.62277,3.4797,18.3955,10.53795,8.49731,15.89861,4.58162,44.09468-14.71569,46.09719C162.4061,180.839,163.89757,124.435,186.59,121.31626Z" style="fill:none;stroke:#fff;stroke-miterlimit:10;stroke-width:1.179352584517147px"/><path d="M182.99642,131.14884c15.86646,2.60649,13.62091,40.6019-.89345,41.36431-16.97553.89225-15.41259-44.04226.89345-41.36431" style="fill:#231815"/><path d="M144.02787,207.82081s2.52786,7.10471,8.85229,6.73662a12.64224,12.64224,0,0,0,9.47532-5.44289" style="fill:none;stroke:#fff;stroke-linecap:round;stroke-linejoin:round;stroke-width:3.3768148121871366px"/><path d="M90.39354,204.1356c.77273,10.444-3.92279,19.30309-10.48776,19.788-6.56389.48488-12.51155-7.58726-13.28428-18.03124-.77274-10.44288,3.92278-19.302,10.48776-19.788,6.56387-.48487,12.51154,7.58727,13.28428,18.03125" style="fill:#fff"/><path d="M215.99413,204.1356c-.77274,10.444,3.92279,19.30309,10.48775,19.788,6.56389.48488,12.51156-7.58726,13.28429-18.03124.77273-10.44288-3.92278-19.302-10.48776-19.788-6.56388-.48487-12.51155,7.58727-13.28428,18.03125" style="fill:#fff"/></svg>