<svg id="圖層_1" data-name="圖層 1" xmlns="http://www.w3.org/2000/svg" viewBox="0 0 470 336.48901"><polygon points="3.882 332.489 263.178 332.489 133.53 223.256 3.882 332.489" style="fill:#4a60ab;stroke:#fff;stroke-miterlimit:10;stroke-width:2.8346456692913384px"/><path d="M187.38071,308.24881c0,3.635,9.928,6.576,22.197,6.576" style="fill:none;stroke:#fff;stroke-miterlimit:10;stroke-width:2.8346456692913384px"/><path d="M216.1532,314.82491a4.11051,4.11051,0,1,1-4.111-4.11,4.1103,4.1103,0,0,1,4.111,4.11" style="fill:#231815;stroke:#fbfbfb;stroke-miterlimit:10"/><path d="M210.05827,231.489s13.5,6.083,14.25,8l-14.583-.583Z" style="fill:#231815"/><path d="M155.80862,207.94971h-2.14013a44.68887,44.68887,0,0,0-44.55811,44.557v29.271a44.60274,44.60274,0,0,0,19.64307,36.8869c.0332.29321.06982.59412.1123.90637a73.32178,73.32178,0,0,0,1.98975,9.53,4.856,4.856,0,0,0-.93408,1.924,1.77448,1.77448,0,0,0-.00684.619c.16016.865,1.04492.845,1.58008.845h3.7168c.751,0,1.96533-.207,2.02-2.396.05859-2.30261-.02832-6.18976-.04639-6.95026a44.13037,44.13037,0,0,0,16.4834,3.192h2.14013a44.1298,44.1298,0,0,0,16.47413-3.18836c-.02784,1.27521-.08887,4.524-.0376,6.54724.05517,2.19,1.269,2.397,2.02,2.397H177.982c.53516,0,1.42041.02,1.58008-.846a1.76277,1.76277,0,0,0-.00683-.619,4.84946,4.84946,0,0,0-.93409-1.924,73.38816,73.38816,0,0,0,1.99024-9.529c.022-.16211.03857-.31293.0581-.47a44.60638,44.60638,0,0,0,19.69629-36.92487v-29.271A44.688,44.688,0,0,0,155.80862,207.94971Z" style="fill:#231815;stroke:#fff;stroke-width:2.8346456692913384px"/><rect width="470" height="336.48901" style="fill:none"/><rect width="470" height="336.48901" style="fill:none"/><polygon points="46.863 64.963 82.374 99.745 108.423 57.41 108.939 107.114 157.294 95.6 122.513 131.112 164.847 157.161 115.143 157.677 126.657 206.031 91.146 171.251 65.095 213.585 64.58 163.881 16.226 175.394 51.007 139.883 8.673 113.834 58.377 113.318 46.863 64.963" style="fill:none;stroke:#fff;stroke-width:2.757533216100978px"/><path d="M215.7933,120.12181c11.65-11.679,36.257-6.169,41.866-1.87,5.61,4.298-7.479,16.066-19.038,19.702a33.10475,33.10475,0,0,1-21.59-.858Z" style="fill:#231815;stroke:#fff;stroke-miterlimit:10;stroke-width:2.8346456692913384px"/><path d="M216.2245,132.18481l-.209-9.01c9.399-6.167,31.581-4.247,33.46-1.66,2.014,2.771-7.536,8.167-15.983,10.84-5.678,1.796-13.277-.025-17.268-.17" style="fill:#fff;stroke:#fff;stroke-miterlimit:10"/><path d="M93.683,120.12181c-11.65-11.679-36.257-6.169-41.866-1.87-5.61,4.298,7.479,16.066,19.038,19.702a33.10476,33.10476,0,0,0,21.59-.858Z" style="fill:#231815;stroke:#fff;stroke-miterlimit:10;stroke-width:2.8346456692913384px"/><path d="M93.2518,132.18481l.209-9.01c-9.399-6.167-31.581-4.247-33.46-1.66-2.013,2.771,7.536,8.167,15.984,10.84,5.677,1.796,13.276-.025,17.267-.17" style="fill:#fff;stroke:#fff;stroke-miterlimit:10"/><rect width="470" height="336.48901" style="fill:none"/><path d="M228.98441,177.6745a1.159,1.159,0,0,1-.08936-.48c1.10938-20.808.34619-50.587-18.99658-68.798-.86768-.8175-1.7749-1.59869-2.70508-2.359.25391-9.20856-1.833-18.13416-1.26465-21.17768,1.07422-5.747,6.6294-5.565,6.374-8.921-.25585-3.355-10.29882-7.069-17.583-3.90295-7.28369,3.167-7.585,16.584-11.03369,20.085-3.1875,3.23663-6.58887-.48151-12.20752-.07373a128.02377,128.02377,0,0,0-16.73829-1.04352,117.93434,117.93434,0,0,0-24.01318,2.27869,4.26431,4.26431,0,0,1-1.86865-1.16144c-3.44922-3.501-3.75-16.918-11.03418-20.085-7.28369-3.166-17.32666.548-17.583,3.90295-.25488,3.356,5.30029,3.174,6.374,8.921.521,2.78833-1.18261,10.51538-1.27783,18.87219a51.60479,51.60479,0,0,0-5.76513,4.66449c-19.334,18.211-20.0962,47.99006-18.99707,68.806a1.10574,1.10574,0,0,1-.07911.472c-4.57373,11.354-4.66259,21.456-.26806,30.011,10.86035,21.163,46.50732,26.249,74.5122,26.782,28.00489-.533,63.65186-5.619,74.51124-26.782C233.64749,199.13049,233.55716,189.0285,228.98441,177.6745Z" style="fill:#231815;stroke:#fff;stroke-width:2.8346456692913384px"/><rect x="74.277" y="88.56702" width="160.92301" height="148.337" style="fill:none"/><path d="M114.3749,119.51541s4.601-7.133,12.281-5.039c6.718,1.832,7.741,6.522,7.741,6.522" style="fill:none;stroke:#fff;stroke-linecap:round;stroke-linejoin:round;stroke-width:2.8346456692913384px"/><path d="M122.0697,126.40262c7.055-.969,12.275,2.921,15.442,8.846,7.133,13.346,3.846,37.015-12.353,38.696-23.39,2.424-22.138-44.924-3.089-47.542" style="fill:#fff"/><path d="M122.0697,126.40262c7.055-.969,12.275,2.921,15.442,8.846,7.133,13.346,3.846,37.015-12.353,38.696C101.7687,176.36862,103.0207,129.02063,122.0697,126.40262Z" style="fill:none;stroke:#fff;stroke-miterlimit:10;stroke-width:0.990000009536743px"/><path d="M119.0536,134.65651c13.319,2.188,11.434,34.083-.75,34.723-14.25.749-12.938-36.971.75-34.723" style="fill:#231815"/><path d="M175.079,120.19751s4.601-7.133,12.281-5.039c6.718,1.832,7.741,6.522,7.741,6.522" style="fill:none;stroke:#fff;stroke-linecap:round;stroke-linejoin:round;stroke-width:2.8346456692913384px"/><path d="M182.77431,126.40262c7.055-.969,12.275,2.921,15.442,8.846,7.133,13.346,3.846,37.015-12.353,38.696-23.39,2.424-22.138-44.924-3.089-47.542" style="fill:#fff"/><path d="M182.77431,126.40262c7.055-.969,12.275,2.921,15.442,8.846,7.133,13.346,3.846,37.015-12.353,38.696C162.4733,176.36862,163.7253,129.02063,182.77431,126.40262Z" style="fill:none;stroke:#fff;stroke-miterlimit:10;stroke-width:0.990000009536743px"/><path d="M179.75771,134.65651c13.319,2.188,11.434,34.083-.75,34.723-14.25.749-12.938-36.971.75-34.723" style="fill:#231815"/><path d="M147.04581,199.01831s2.122,5.964,7.431,5.655a10.61244,10.61244,0,0,0,7.954-4.569" style="fill:none;stroke:#fff;stroke-linecap:round;stroke-linejoin:round;stroke-width:2.8346456692913384px"/><path d="M102.02281,195.92478c.64866,8.76714-3.293,16.20386-8.80389,16.61088-5.51.407-10.50274-6.36908-11.15141-15.1362-.64866-8.76622,3.293-16.203,8.80389-16.6109,5.51-.407,10.50274,6.36909,11.15141,15.13622" style="fill:#fff"/><path d="M207.45743,195.92478c-.64868,8.76714,3.293,16.20386,8.80387,16.61088,5.51.407,10.50275-6.36908,11.15141-15.1362.64867-8.76622-3.29295-16.203-8.80388-16.6109-5.51-.407-10.50274,6.36909-11.1514,15.13622" style="fill:#fff"/><path d="M109.3842,223.074c-.169-.087-.339-.173-.502-.265a3.60226,3.60226,0,0,1,.502.265" style="fill:#f5a945"/><polygon points="342.476 127.489 217.476 332.489 467.476 332.489 342.476 127.489" style="fill:#d9e364;stroke:#fff;stroke-miterlimit:10;stroke-width:2.8346456692913384px"/><path d="M162.6561,265.81031l-15.662-8.416a1.33974,1.33974,0,0,0-1.974,1.221l.543,17.772a1.34,1.34,0,0,0,2.044,1.099l15.12-9.357a1.33918,1.33918,0,0,0-.071-2.319" style="fill:#231815"/><path d="M448.37613,76.06348a46,46,0,1,1-46-46,46.00011,46.00011,0,0,1,46,46" style="fill:#ea5555;stroke:#fff;stroke-miterlimit:10;stroke-width:2.8346456692913384px"/><path d="M144.71471,254.56812l-.001-.002Z" style="fill:#b186b7"/><rect width="470" height="336.48901" style="fill:none"/><rect width="470" height="336.48901" style="fill:none"/><path d="M210.0648,227.20191a5.89336,5.89336,0,0,0-5.891-5.893H94.96281a5.89464,5.89464,0,0,0-5.894,5.893v12.277h120.996Z" style="fill:#231815;stroke:#fff;stroke-miterlimit:10;stroke-width:2.8346456692913384px"/><path d="M94.9618,306.26441h109.211a5.89164,5.89164,0,0,0,5.892-5.893v-60.893H89.06979v60.893a5.89229,5.89229,0,0,0,5.892,5.893" style="fill:#231815;stroke:#fff;stroke-miterlimit:10;stroke-width:2.8346456692913384px"/><path d="M104.9764,229.28881a1.10535,1.10535,0,0,1-1.105,1.105h-8.594a1.1045,1.1045,0,1,1,0-2.209h8.594a1.10515,1.10515,0,0,1,1.105,1.104" style="fill:#fff"/><path d="M205.809,229.28881a1.10494,1.10494,0,0,1-1.103,1.105h-8.595a1.1045,1.1045,0,0,1,0-2.209h8.595a1.10473,1.10473,0,0,1,1.103,1.104" style="fill:#fff"/><path d="M229.14439,212.35722c-3.32-1.343-6.917-.196-8.03,2.56l-.734,1.815,12.022,4.862.732-1.814c1.114-2.757-.671-6.08-3.99-7.423" style="fill:#231815;stroke:#fff;stroke-miterlimit:10"/><path d="M206.15469,286.22141l-12.021-4.862-.798,13.969c1.044.484,2.284,1.038,3.582,1.601Z" style="fill:#231815;stroke:#fff;stroke-miterlimit:10"/><path d="M166.58389,256.21561a22.34569,22.34569,0,0,0-15.857-6.558c-.264,0-.527.005-.791.015a22.62578,22.62578,0,0,0-3.696.426l-.073.019a3.03016,3.03016,0,0,0-1.553,1.046,2.39548,2.39548,0,0,0-.449,1.441,4.36975,4.36975,0,0,0,.548,1.962c.058.11.11.201.15.267l.049.079a8.45052,8.45052,0,0,1-11.713,11.219.62854.62854,0,0,0-.17-.065,3.6243,3.6243,0,0,0-1.528-.375,2.694,2.694,0,0,0-1.228.29,3.23674,3.23674,0,0,0-1.135.995,3.99065,3.99065,0,0,0-.449.79l-.037.122a22.65616,22.65616,0,0,0-.399,4.235,22.42128,22.42128,0,0,0,21.685,22.421c.256.009.51.013.764.013a22.45913,22.45913,0,0,0,15.882-38.342" style="fill:#231815;stroke:#fff;stroke-miterlimit:10;stroke-width:2.8346456692913384px"/><path d="M144.38811,279.63841a4.74751,4.74751,0,1,1-4.748-4.748,4.74768,4.74768,0,0,1,4.748,4.748" style="fill:#fff"/><path d="M157.95351,284.739a4.748,4.748,0,1,1-4.748-4.748,4.74683,4.74683,0,0,1,4.748,4.748" style="fill:#fff"/><path d="M167.4496,274.07491a4.74851,4.74851,0,1,1-4.748-4.748,4.74832,4.74832,0,0,1,4.748,4.748" style="fill:#fff"/><path d="M164.4886,260.70771a4.748,4.748,0,1,1-4.748-4.748,4.74832,4.74832,0,0,1,4.748,4.748" style="fill:#fff"/><path d="M194.6859,280.25761c-1.115,2.757.67,6.079,3.991,7.423,3.318,1.343,6.914.195,8.03-2.56l25.695-63.525-12.02-4.863Z" style="fill:#231815;stroke:#fff;stroke-miterlimit:10"/><path d="M105.87034,261.79073c-1.04786-3.288-4.77491-4.895-7.89014-5.419a8.67743,8.67743,0,0,0-2.95068.044,13.26144,13.26144,0,0,0-2.98975.78412l-4.21191-11.61078s-18.397,28.0025-.91065,26.95044a3.89326,3.89326,0,0,0,3.73633-.12689,3.53816,3.53816,0,0,0,.63281.05359,3.62077,3.62077,0,0,0,1.53516.1015,3.85142,3.85142,0,0,0,1.68066-.69641c.40967.05548.82422.10882,1.251.15643a9.87251,9.87251,0,0,0,4.80615-.355,4.05751,4.05751,0,0,0,2.52393-5.26923C104.94944,265.67611,106.49338,263.95321,105.87034,261.79073Z" style="fill:#231815;stroke:#fff;stroke-miterlimit:10"/><path d="M91.7214,271.38638l.002-.0009a4.26929,4.26929,0,0,0,2.23931-1.03287c2.308.11047,5.44941.60985,7.5055-1.0194,1.83307-1.45141.64621-3.90337.64621-3.90337,2.35879-.653,3.44309-2.0424,3.10556-3.51716-.93-3.24053-6.35848-4.8599-9.06476-4.82308a16.57978,16.57978,0,0,0-4.11319.68889c-5.52907,4.02461-5.50219,13.47946-.32062,13.60789" style="fill:#fbfbfb;stroke:#231815;stroke-miterlimit:10;stroke-width:0.9095987140800698px"/><path d="M97.86745,262.50555a13.09414,13.09414,0,0,1,4.122,3.46426l.89327-.8015a13.66177,13.66177,0,0,0-5.01529-2.66276" style="fill:#040000"/><path d="M206.756,257.04438c1.04785-3.288,4.7749-4.895,7.89014-5.419a8.67717,8.67717,0,0,1,2.95068.044,13.26158,13.26158,0,0,1,2.98975.78412l4.21191-11.61078s18.397,28.00251.91065,26.95044a3.89326,3.89326,0,0,1-3.73633-.12689,3.53715,3.53715,0,0,1-.63281.05359,3.62077,3.62077,0,0,1-1.53516.1015,3.8512,3.8512,0,0,1-1.68066-.69641c-.40967.05548-.82422.10882-1.251.15643a9.87238,9.87238,0,0,1-4.80615-.355,4.05751,4.05751,0,0,1-2.52393-5.26923C207.6769,260.92976,206.133,259.20686,206.756,257.04438Z" style="fill:#231815;stroke:#fff;stroke-miterlimit:10"/><path d="M220.90493,266.64l-.002-.0009a4.26935,4.26935,0,0,1-2.2393-1.03286c-2.308.11046-5.44941.60984-7.50551-1.01941-1.83307-1.45141-.6462-3.90337-.6462-3.90337-2.35879-.653-3.4431-2.0424-3.10556-3.51716.93-3.24053,6.35847-4.8599,9.06476-4.82308a16.58032,16.58032,0,0,1,4.11319.68889c5.52907,4.02462,5.50218,13.47946.32061,13.60789" style="fill:#fbfbfb;stroke:#231815;stroke-miterlimit:10;stroke-width:0.9095987140800698px"/><path d="M214.75889,257.75921a13.09387,13.09387,0,0,0-4.122,3.46426l-.89327-.80151a13.66152,13.66152,0,0,1,5.01529-2.66275" style="fill:#040000"/></svg>