<svg id="圖層_1" data-name="圖層 1" xmlns="http://www.w3.org/2000/svg" viewBox="0 0 470 336.48901"><path d="M435.93121,332.489h-230.362a9.06922,9.06922,0,0,1-9.069-9.069V161.98a9.06858,9.06858,0,0,1,9.069-9.069h230.362a9.06859,9.06859,0,0,1,9.069,9.069V323.42a9.06923,9.06923,0,0,1-9.069,9.069" style="fill:#4a60ab;stroke:#fff;stroke-miterlimit:10;stroke-width:2.8346456692913384px"/><polygon points="200.895 331.168 443.536 157.524 439.891 154.866 197.248 328.509 200.895 331.168" style="fill:#fff"/><polygon points="440.03 330.658 197.951 157.513 201.596 154.853 443.675 327.998 440.03 330.658" style="fill:#fff"/><path d="M143.5098,332.489H23.51279a4.1568,4.1568,0,0,1-4.157-4.157V263.576a4.1568,4.1568,0,0,1,4.157-4.157h119.997a4.1568,4.1568,0,0,1,4.157,4.157v64.756a4.1568,4.1568,0,0,1-4.157,4.157" style="fill:#d9e364;stroke:#fff;stroke-miterlimit:10;stroke-width:2.8346456692913384px"/><polygon points="21.625 331.952 146.911 261.296 145.028 260.215 19.743 330.87 21.625 331.952" style="fill:#fff"/><polygon points="145.1 331.744 20.105 261.292 21.987 260.21 146.982 330.662 145.1 331.744" style="fill:#fff"/><path d="M444.1387,72.614a46,46,0,1,1-46-46,46.00011,46.00011,0,0,1,46,46" style="fill:#ea5555"/><circle cx="398.1387" cy="72.61401" r="46" style="fill:none;stroke:#fff;stroke-miterlimit:10;stroke-width:2.8346456692913384px"/><path d="M384.80569,59.489a3.83351,3.83351,0,1,1-3.833-3.833,3.83288,3.83288,0,0,1,3.833,3.833" style="fill:#fff"/><path d="M419.1387,59.489a3.83351,3.83351,0,1,1-3.833-3.833,3.83289,3.83289,0,0,1,3.833,3.833" style="fill:#fff"/><path d="M367.4722,75.489c0,15.477,13.716,28,30.667,28" style="fill:none;stroke:#fff;stroke-linecap:round;stroke-miterlimit:10;stroke-width:2.23900008201599px"/><path d="M428.80569,75.489c0,15.477-13.716,28-30.667,28" style="fill:none;stroke:#fff;stroke-linecap:round;stroke-miterlimit:10;stroke-width:2.23900008201599px"/><rect width="470" height="336.48901" style="fill:none"/><path d="M187.38071,308.24231c0,3.635,9.928,6.576,22.197,6.576" style="fill:none;stroke:#fff;stroke-miterlimit:10;stroke-width:2.8346456692913384px"/><path d="M216.1532,314.81841a4.11051,4.11051,0,1,1-4.111-4.11,4.1103,4.1103,0,0,1,4.111,4.11" style="fill:#231815;stroke:#fbfbfb;stroke-miterlimit:10"/><path d="M155.80862,207.94321h-2.14013a44.68887,44.68887,0,0,0-44.55811,44.557v29.271a44.60274,44.60274,0,0,0,19.64307,36.8869c.0332.29321.06982.59412.1123.90637a73.32178,73.32178,0,0,0,1.98975,9.53,4.856,4.856,0,0,0-.93408,1.924,1.77448,1.77448,0,0,0-.00684.619c.16016.865,1.04492.845,1.58008.845h3.7168c.751,0,1.96533-.207,2.02-2.396.05859-2.30261-.02832-6.18976-.04639-6.95026a44.13037,44.13037,0,0,0,16.4834,3.192h2.14013a44.1298,44.1298,0,0,0,16.47413-3.18836c-.02784,1.27521-.08887,4.524-.0376,6.54724.05517,2.19,1.269,2.397,2.02,2.397H177.982c.53516,0,1.42041.02,1.58008-.846a1.76277,1.76277,0,0,0-.00683-.619,4.84946,4.84946,0,0,0-.93409-1.924,73.38816,73.38816,0,0,0,1.99024-9.529c.022-.16211.03857-.31293.0581-.47a44.60638,44.60638,0,0,0,19.69629-36.92487v-29.271A44.688,44.688,0,0,0,155.80862,207.94321Z" style="fill:#231815;stroke:#fff;stroke-width:2.8346456692913384px"/><rect y="-0.0065" width="470" height="336.48901" style="fill:none"/><rect y="-0.0065" width="470" height="336.48901" style="fill:none"/><polygon points="46.863 64.957 82.374 99.738 108.423 57.404 108.939 107.108 157.294 95.594 122.513 131.106 164.847 157.154 115.143 157.67 126.657 206.025 91.146 171.244 65.095 213.579 64.58 163.875 16.226 175.388 51.007 139.877 8.673 113.827 58.377 113.311 46.863 64.957" style="fill:none;stroke:#fff;stroke-width:2.757533216100978px"/><path d="M215.7933,120.11531c11.65-11.679,36.257-6.169,41.866-1.87,5.61,4.298-7.479,16.066-19.038,19.702a33.10471,33.10471,0,0,1-21.59-.858Z" style="fill:#231815;stroke:#fff;stroke-miterlimit:10;stroke-width:2.8346456692913384px"/><path d="M216.2245,132.17831l-.209-9.01c9.399-6.167,31.581-4.247,33.46-1.66,2.014,2.771-7.536,8.167-15.983,10.84-5.678,1.796-13.277-.025-17.268-.17" style="fill:#fff;stroke:#fff;stroke-miterlimit:10"/><path d="M93.683,120.11531c-11.65-11.679-36.257-6.169-41.866-1.87-5.61,4.298,7.479,16.066,19.038,19.702a33.10473,33.10473,0,0,0,21.59-.858Z" style="fill:#231815;stroke:#fff;stroke-miterlimit:10;stroke-width:2.8346456692913384px"/><path d="M93.2518,132.17831l.209-9.01c-9.399-6.167-31.581-4.247-33.46-1.66-2.013,2.771,7.536,8.167,15.984,10.84,5.677,1.796,13.276-.025,17.267-.17" style="fill:#fff;stroke:#fff;stroke-miterlimit:10"/><rect y="-0.0065" width="470" height="336.48901" style="fill:none"/><path d="M228.98441,177.668a1.159,1.159,0,0,1-.08936-.48c1.10938-20.808.34619-50.587-18.99658-68.798-.86768-.8175-1.7749-1.59869-2.70508-2.359.25391-9.20856-1.833-18.13416-1.26465-21.17768,1.07422-5.747,6.6294-5.565,6.374-8.921-.25585-3.355-10.29882-7.069-17.583-3.903-7.28369,3.167-7.585,16.584-11.03369,20.085-3.1875,3.23663-6.58887-.48151-12.20752-.07373A128.02377,128.02377,0,0,0,154.74026,90.997a117.93434,117.93434,0,0,0-24.01318,2.27869,4.26431,4.26431,0,0,1-1.86865-1.16144c-3.44922-3.501-3.75-16.918-11.03418-20.085-7.28369-3.166-17.32666.548-17.583,3.903-.25488,3.356,5.30029,3.174,6.374,8.921.521,2.78833-1.18261,10.51538-1.27783,18.87219A51.60479,51.60479,0,0,0,99.5723,108.39c-19.334,18.211-20.0962,47.99006-18.99707,68.806a1.10574,1.10574,0,0,1-.07911.472c-4.57373,11.354-4.66259,21.456-.26806,30.011,10.86035,21.163,46.50732,26.249,74.5122,26.782,28.00489-.533,63.65186-5.619,74.51124-26.782C233.64749,199.124,233.55716,189.022,228.98441,177.668Z" style="fill:#231815;stroke:#fff;stroke-width:2.8346456692913384px"/><rect x="74.277" y="88.56052" width="160.92301" height="148.337" style="fill:none"/><path d="M114.3749,119.50891s4.601-7.133,12.281-5.039c6.718,1.832,7.741,6.522,7.741,6.522" style="fill:none;stroke:#fff;stroke-linecap:round;stroke-linejoin:round;stroke-width:2.8346456692913384px"/><path d="M122.0697,126.39612c7.055-.969,12.275,2.921,15.442,8.846,7.133,13.346,3.846,37.015-12.353,38.696-23.39,2.424-22.138-44.924-3.089-47.542" style="fill:#fff"/><path d="M122.0697,126.39612c7.055-.969,12.275,2.921,15.442,8.846,7.133,13.346,3.846,37.015-12.353,38.696C101.7687,176.36212,103.0207,129.01413,122.0697,126.39612Z" style="fill:none;stroke:#fff;stroke-miterlimit:10;stroke-width:0.990000009536743px"/><path d="M119.0536,134.65c13.319,2.188,11.434,34.083-.75,34.723-14.25.749-12.938-36.971.75-34.723" style="fill:#231815"/><path d="M175.079,120.191s4.601-7.133,12.281-5.039c6.718,1.832,7.741,6.522,7.741,6.522" style="fill:none;stroke:#fff;stroke-linecap:round;stroke-linejoin:round;stroke-width:2.8346456692913384px"/><path d="M182.77431,126.39612c7.055-.969,12.275,2.921,15.442,8.846,7.133,13.346,3.846,37.015-12.353,38.696-23.39,2.424-22.138-44.924-3.089-47.542" style="fill:#fff"/><path d="M182.77431,126.39612c7.055-.969,12.275,2.921,15.442,8.846,7.133,13.346,3.846,37.015-12.353,38.696C162.4733,176.36212,163.7253,129.01413,182.77431,126.39612Z" style="fill:none;stroke:#fff;stroke-miterlimit:10;stroke-width:0.990000009536743px"/><path d="M179.75771,134.65c13.319,2.188,11.434,34.083-.75,34.723-14.25.749-12.938-36.971.75-34.723" style="fill:#231815"/><path d="M147.04581,199.01181s2.122,5.964,7.431,5.655a10.61244,10.61244,0,0,0,7.954-4.569" style="fill:none;stroke:#fff;stroke-linecap:round;stroke-linejoin:round;stroke-width:2.8346456692913384px"/><path d="M102.02281,195.91828c.64866,8.76714-3.293,16.20386-8.80389,16.61088-5.51.407-10.50274-6.36908-11.15141-15.1362-.64866-8.76622,3.293-16.20295,8.80389-16.6109,5.51-.407,10.50274,6.36909,11.15141,15.13622" style="fill:#fff"/><path d="M207.45743,195.91828c-.64868,8.76714,3.293,16.20386,8.80387,16.61088,5.51.407,10.50275-6.36908,11.15141-15.1362.64867-8.76622-3.29295-16.20295-8.80388-16.6109-5.51-.407-10.50274,6.36909-11.1514,15.13622" style="fill:#fff"/><path d="M109.3842,223.06751c-.169-.087-.339-.173-.502-.265a3.60226,3.60226,0,0,1,.502.265" style="fill:#f5a945"/><path d="M162.6561,265.80381l-15.662-8.416a1.33974,1.33974,0,0,0-1.974,1.221l.543,17.772a1.34,1.34,0,0,0,2.044,1.099l15.12-9.357a1.33918,1.33918,0,0,0-.071-2.319" style="fill:#231815"/><path d="M144.71471,254.56161l-.001-.002Z" style="fill:#b186b7"/><rect y="-0.0065" width="470" height="336.48901" style="fill:none"/><rect y="-0.0065" width="470" height="336.48901" style="fill:none"/><path d="M219.4897,228.28445a6.14071,6.14071,0,0,0-6.358-5.893H95.2537a6.1418,6.1418,0,0,0-6.362,5.893v12.277h130.598Z" style="fill:#231815;stroke:#fff;stroke-miterlimit:10;stroke-width:2.8346456692913384px"/><path d="M95.2522,306.07092h117.878a6.13751,6.13751,0,0,0,6.358-5.893v-60.893H88.8932v60.893a6.13842,6.13842,0,0,0,6.359,5.893" style="fill:#231815;stroke:#fff;stroke-miterlimit:10;stroke-width:2.8346456692913384px"/><path d="M99.97679,230.33072a2.1665,2.1665,0,1,1-2.167-2.167A2.16739,2.16739,0,0,1,99.97679,230.33072Z" style="fill:#fff"/><path d="M107.97679,230.33072a2.1665,2.1665,0,1,1-2.167-2.167A2.16739,2.16739,0,0,1,107.97679,230.33072Z" style="fill:#fff"/><path d="M115.97679,230.33072a2.1665,2.1665,0,1,1-2.167-2.167A2.16739,2.16739,0,0,1,115.97679,230.33072Z" style="fill:#fff"/><path d="M123.83469,293.42842h-24.996a3.252,3.252,0,0,1-3.252-3.252v-34.996a3.252,3.252,0,0,1,3.252-3.252h24.996a3.252,3.252,0,0,1,3.252,3.252v34.996a3.252,3.252,0,0,1-3.252,3.252" style="fill:#fff"/><path d="M117.8083,271.37072a1.88072,1.88072,0,0,1,.534,1.308,1.84454,1.84454,0,0,1-1.842,1.84h-3.309v3.336a1.93069,1.93069,0,0,1-.533,1.308,1.88255,1.88255,0,0,1-1.308.534,1.84476,1.84476,0,0,1-1.841-1.842v-3.336h-3.336a1.926,1.926,0,0,1-1.308-.533,1.88016,1.88016,0,0,1-.534-1.307,1.84561,1.84561,0,0,1,1.842-1.842h3.336v-3.336a1.93261,1.93261,0,0,1,.533-1.308,1.88174,1.88174,0,0,1,1.308-.533,1.84453,1.84453,0,0,1,1.841,1.841v3.336h3.336a1.81568,1.81568,0,0,1,1.281.534" style="fill:#231815"/><path d="M166.94509,293.42842h-24.996a3.252,3.252,0,0,1-3.252-3.252v-34.996a3.252,3.252,0,0,1,3.252-3.252h24.996a3.252,3.252,0,0,1,3.252,3.252v34.996a3.252,3.252,0,0,1-3.252,3.252" style="fill:#fff"/><path d="M160.24,270.59632a.73058.73058,0,0,1,.614,1.121l-6.405,6.805-6.404-6.805a.72239.72239,0,0,1,.613-1.121h1.575v-2.988a.77481.77481,0,0,1,.774-.775h6.911a.77481.77481,0,0,1,.774.775v2.988Z" style="fill:#231815"/><path d="M209.5422,293.42842h-24.996a3.252,3.252,0,0,1-3.252-3.252v-34.996a3.252,3.252,0,0,1,3.252-3.252h24.996a3.252,3.252,0,0,1,3.252,3.252v34.996a3.252,3.252,0,0,1-3.252,3.252" style="fill:#fff"/><path d="M195.0964,274.21252c2.028,1.734,5.711,3.416,7.606.641.16-.214.267-.134.186.106-1.574,4.724-7.018,5.071-10.647,2.028l-1.308,1.174a.559.559,0,0,1-.347.134.40145.40145,0,0,1-.294-.106.50927.50927,0,0,1-.213-.401v-5.07a.98.98,0,0,1,.053-.268.42249.42249,0,0,1,.16-.213.67147.67147,0,0,1,.481-.213h5.07a.51843.51843,0,0,1,.214.053.35746.35746,0,0,1,.186.16.522.522,0,0,1-.026.641Z" style="fill:#231815"/><path d="M191.1999,270.39612c1.575-4.724,7.019-5.07,10.648-2.028l1.308-1.174a.56254.56254,0,0,1,.347-.134.40006.40006,0,0,1,.293.107.50753.50753,0,0,1,.214.401v5.07a.93942.93942,0,0,1-.054.267.41.41,0,0,1-.16.214.67152.67152,0,0,1-.48.213h-5.071a.50956.50956,0,0,1-.213-.053.51928.51928,0,0,1-.16-.801l1.147-1.281c-2.028-1.735-5.711-3.416-7.605-.641-.187.188-.32.108-.214-.16" style="fill:#231815"/><path d="M105.87034,261.78423c-1.04786-3.288-4.77491-4.895-7.89014-5.419a8.67743,8.67743,0,0,0-2.95068.044,13.26144,13.26144,0,0,0-2.98975.78412l-4.21191-11.61078s-18.397,28.0025-.91065,26.95044a3.89326,3.89326,0,0,0,3.73633-.12689,3.53816,3.53816,0,0,0,.63281.05359,3.62077,3.62077,0,0,0,1.53516.1015,3.85142,3.85142,0,0,0,1.68066-.69641c.40967.05548.82422.10882,1.251.15643a9.87251,9.87251,0,0,0,4.80615-.355,4.05751,4.05751,0,0,0,2.52393-5.26923C104.94944,265.66961,106.49338,263.94671,105.87034,261.78423Z" style="fill:#231815;stroke:#fff;stroke-miterlimit:10"/><path d="M91.7214,271.37988l.002-.0009a4.26929,4.26929,0,0,0,2.23931-1.03287c2.308.11047,5.44941.60985,7.5055-1.0194,1.83307-1.45141.64621-3.90337.64621-3.90337,2.35879-.65295,3.44309-2.0424,3.10556-3.51716-.93-3.24053-6.35848-4.8599-9.06476-4.82308a16.57978,16.57978,0,0,0-4.11319.68889c-5.52907,4.02461-5.50219,13.47946-.32062,13.60789" style="fill:#fbfbfb;stroke:#231815;stroke-miterlimit:10;stroke-width:0.9095987140800698px"/><path d="M97.86745,262.49905a13.09414,13.09414,0,0,1,4.122,3.46426l.89327-.8015a13.66163,13.66163,0,0,0-5.01529-2.66276" style="fill:#040000"/><path d="M208.06,260.59284c.09171-3.44974,3.22453-6.0302,6.071-7.4002a8.67752,8.67752,0,0,1,2.84643-.77865,13.26148,13.26148,0,0,1,3.08987-.07862l.81535-12.32419s25.46131,21.77867,8.37265,25.63307a3.89324,3.89324,0,0,1-3.62411.91761,3.53767,3.53767,0,0,1-.59292.22753,3.62078,3.62078,0,0,1-1.44631.52459,3.85126,3.85126,0,0,1-1.80806-.20133c-.37806.16726-.7614.33384-1.15807.49829a9.87236,9.87236,0,0,1-4.71518.99611,4.05751,4.05751,0,0,1-3.89025-4.359C210.02547,264.06861,208.06315,262.84328,208.06,260.59284Z" style="fill:#231815;stroke:#fff;stroke-miterlimit:10"/><path d="M224.31993,265.87323l-.00216-.00031a4.26938,4.26938,0,0,1-2.43826-.36908c-2.18615.74822-5.06459,2.10186-7.49279,1.109-2.1645-.88413-1.70666-3.56948-1.70666-3.56948-2.44733.02907-3.87538-1.00385-3.96147-2.5143-.0083-3.37132,4.75535-6.437,7.365-7.15459a16.57919,16.57919,0,0,1,4.14245-.48265c6.43048,2.32746,9.03512,11.4165,4.09385,12.98144" style="fill:#fbfbfb;stroke:#231815;stroke-miterlimit:10;stroke-width:0.9095987140800698px"/><path d="M215.94577,259.05293a13.094,13.094,0,0,0-2.99548,4.47429l-1.081-.52134a13.66177,13.66177,0,0,1,4.07647-3.95295" style="fill:#040000"/></svg>