<svg id="圖層_1" data-name="圖層 1" xmlns="http://www.w3.org/2000/svg" viewBox="0 0 470 336.50201"><path d="M446.08324,145.86079a115.5,115.5,0,1,1-115.5-115.5,115.49986,115.49986,0,0,1,115.5,115.5" style="fill:#ea5555;stroke:#fff;stroke-width:2.83464566929134px"/><path d="M83.41732,335.08469h-76a6.00091,6.00091,0,0,1-6-6v-35a6.00091,6.00091,0,0,1,6-6h76a6.00091,6.00091,0,0,1,6,6v35a6.00091,6.00091,0,0,1-6,6" style="fill:#4a60ab;stroke:#fff;stroke-miterlimit:10;stroke-width:2.83464566929134px"/><path d="M209.80577,335.08469h-76a6.00026,6.00026,0,0,1-6-6v-35a6.00026,6.00026,0,0,1,6-6h76a6.00091,6.00091,0,0,1,6,6v35a6.00091,6.00091,0,0,1-6,6" style="fill:#d9e364;stroke:#fff;stroke-miterlimit:10;stroke-width:2.83464566929134px"/><path d="M336.19423,335.08469h-76a6.00089,6.00089,0,0,1-6-6v-35a6.00089,6.00089,0,0,1,6-6h76a6.00092,6.00092,0,0,1,6,6v35a6.00092,6.00092,0,0,1-6,6" style="fill:#4a60ab;stroke:#fff;stroke-miterlimit:10;stroke-width:2.83464566929134px"/><path d="M462.58268,335.08469h-76a6.00089,6.00089,0,0,1-6-6v-35a6.00089,6.00089,0,0,1,6-6h76a6.00091,6.00091,0,0,1,6,6v35a6.00091,6.00091,0,0,1-6,6" style="fill:#d9e364;stroke:#fff;stroke-miterlimit:10;stroke-width:2.83464566929134px"/><rect width="470" height="336.50201" style="fill:none"/><path d="M407.93731,146.68567l-118.996-68.702a4.00143,4.00143,0,0,0-6.002,3.465v137.404a4.00155,4.00155,0,0,0,6.002,3.466l118.996-68.702A4.00145,4.00145,0,0,0,407.93731,146.68567Z" style="fill:#fff"/><rect width="470" height="336.50201" style="fill:none"/><rect width="470" height="336.50201" style="fill:none"/><path d="M183.4988,310.84445c0,3.635,9.928,6.576,22.197,6.576" style="fill:none;stroke:#fff;stroke-miterlimit:10;stroke-width:2.83464566929134px"/><path d="M212.27129,317.42055a4.1105,4.1105,0,1,1-4.111-4.11,4.11029,4.11029,0,0,1,4.111,4.11" style="fill:#231815;stroke:#fbfbfb;stroke-miterlimit:10"/><path d="M151.92672,210.54535h-2.14014a44.68886,44.68886,0,0,0-44.5581,44.557v29.271a44.60276,44.60276,0,0,0,19.64306,36.8869c.03321.29321.06983.59412.11231.90637a73.32177,73.32177,0,0,0,1.98974,9.53,4.856,4.856,0,0,0-.93408,1.924,1.77423,1.77423,0,0,0-.00683.619c.16015.865,1.04492.845,1.58007.845h3.7168c.751,0,1.96533-.207,2.02-2.396.05859-2.30262-.02832-6.18976-.04639-6.95026a44.13045,44.13045,0,0,0,16.4834,3.192h2.14014a44.12971,44.12971,0,0,0,16.47412-3.18836c-.02783,1.27521-.08887,4.524-.0376,6.54724.05518,2.19,1.26905,2.397,2.02,2.397h3.7168c.53516,0,1.42041.01995,1.58008-.846a1.763,1.763,0,0,0-.00684-.619,4.84944,4.84944,0,0,0-.93408-1.924,73.38816,73.38816,0,0,0,1.99023-9.529c.022-.16211.03858-.31293.05811-.47a44.60634,44.60634,0,0,0,19.69629-36.92486v-29.271A44.688,44.688,0,0,0,151.92672,210.54535Z" style="fill:#231815;stroke:#fff;stroke-width:2.83464566929134px"/><polygon points="42.981 67.559 78.492 102.34 104.542 60.006 105.057 109.71 153.412 98.196 118.631 133.708 160.965 159.757 111.261 160.272 122.775 208.627 87.264 173.847 61.213 216.181 60.699 166.477 12.344 177.99 47.125 142.479 4.791 116.429 54.495 115.914 42.981 67.559" style="fill:none;stroke:#fff;stroke-width:2.75753321610098px"/><path d="M211.9114,122.71745c11.65-11.679,36.257-6.169,41.866-1.87,5.61,4.298-7.479,16.066-19.038,19.702a33.10475,33.10475,0,0,1-21.59-.858Z" style="fill:#231815;stroke:#fff;stroke-miterlimit:10;stroke-width:2.83464566929134px"/><path d="M212.3426,134.78045l-.209-9.01c9.399-6.167,31.581-4.247,33.46-1.66,2.014,2.771-7.536,8.167-15.983,10.84-5.678,1.796-13.277-.025-17.268-.17" style="fill:#fff;stroke:#fff;stroke-miterlimit:10"/><path d="M89.80109,122.71745c-11.65-11.679-36.257-6.169-41.866-1.87-5.61,4.298,7.479,16.066,19.038,19.702a33.10475,33.10475,0,0,0,21.59-.858Z" style="fill:#231815;stroke:#fff;stroke-miterlimit:10;stroke-width:2.83464566929134px"/><path d="M89.3699,134.78045l.209-9.01c-9.399-6.167-31.581-4.247-33.46-1.66-2.013,2.771,7.536,8.167,15.984,10.84,5.677,1.796,13.276-.025,17.267-.17" style="fill:#fff;stroke:#fff;stroke-miterlimit:10"/><path d="M225.1025,180.27014a1.159,1.159,0,0,1-.08935-.48c1.10937-20.808.34619-50.587-18.99659-68.798-.86767-.8175-1.7749-1.59869-2.70507-2.359.2539-9.20855-1.833-18.13415-1.26465-21.17767,1.07422-5.747,6.62939-5.565,6.374-8.921-.25586-3.355-10.29883-7.069-17.583-3.903-7.28369,3.167-7.585,16.584-11.03369,20.085-3.1875,3.23663-6.58887-.48151-12.20752-.07373a128.022,128.022,0,0,0-16.73828-1.04352,117.93356,117.93356,0,0,0-24.01318,2.27869,4.2644,4.2644,0,0,1-1.86866-1.16144c-3.44921-3.501-3.75-16.918-11.03418-20.085-7.28369-3.166-17.32666.548-17.583,3.903-.25489,3.356,5.30029,3.174,6.374,8.921.521,2.78833-1.18262,10.51538-1.27783,18.87219a51.60378,51.60378,0,0,0-5.76514,4.66449c-19.334,18.211-20.09619,47.99-18.99707,68.806a1.10573,1.10573,0,0,1-.0791.472c-4.57373,11.354-4.6626,21.456-.26807,30.011,10.86035,21.163,46.50733,26.249,74.51221,26.78205,28.00488-.533,63.65186-5.619,74.51123-26.78205C229.76559,201.72613,229.67525,191.62414,225.1025,180.27014Z" style="fill:#231815;stroke:#fff;stroke-width:2.83464566929134px"/><rect x="70.3951" y="91.16266" width="160.92301" height="148.337" style="fill:none"/><path d="M110.493,122.11105s4.601-7.133,12.281-5.039c6.718,1.832,7.741,6.522,7.741,6.522" style="fill:none;stroke:#fff;stroke-linecap:round;stroke-linejoin:round;stroke-width:2.83464566929134px"/><path d="M118.1878,128.99826c7.055-.969,12.275,2.921,15.442,8.846,7.133,13.346,3.846,37.015-12.353,38.696-23.39,2.424-22.138-44.924-3.089-47.542" style="fill:#fff"/><path d="M118.1878,128.99826c7.055-.969,12.275,2.921,15.442,8.846,7.133,13.346,3.846,37.015-12.353,38.696C97.8868,178.96426,99.13879,131.61627,118.1878,128.99826Z" style="fill:none;stroke:#fff;stroke-miterlimit:10;stroke-width:0.990000009536743px"/><path d="M115.17169,137.25215c13.319,2.188,11.434,34.083-.75,34.723-14.25.749-12.938-36.971.75-34.723" style="fill:#231815"/><path d="M171.19709,122.79315s4.601-7.133,12.281-5.039c6.718,1.832,7.741,6.522,7.741,6.522" style="fill:none;stroke:#fff;stroke-linecap:round;stroke-linejoin:round;stroke-width:2.83464566929134px"/><path d="M178.8924,128.99826c7.055-.969,12.275,2.921,15.442,8.846,7.133,13.346,3.846,37.015-12.353,38.696-23.39,2.424-22.138-44.924-3.089-47.542" style="fill:#fff"/><path d="M178.8924,128.99826c7.055-.969,12.275,2.921,15.442,8.846,7.133,13.346,3.846,37.015-12.353,38.696C158.59139,178.96426,159.84339,131.61627,178.8924,128.99826Z" style="fill:none;stroke:#fff;stroke-miterlimit:10;stroke-width:0.990000009536743px"/><path d="M175.8758,137.25215c13.319,2.188,11.434,34.083-.75,34.723-14.25.749-12.938-36.971.75-34.723" style="fill:#231815"/><path d="M143.1639,201.614s2.122,5.964,7.431,5.655a10.61247,10.61247,0,0,0,7.954-4.569" style="fill:none;stroke:#fff;stroke-linecap:round;stroke-linejoin:round;stroke-width:2.83464566929134px"/><path d="M98.1409,198.52042c.64867,8.76714-3.293,16.20386-8.80388,16.61088-5.51.407-10.50274-6.36908-11.15141-15.13621-.64867-8.76621,3.293-16.20294,8.80389-16.61089,5.51-.407,10.50273,6.36909,11.1514,15.13622" style="fill:#fff"/><path d="M203.57552,198.52042c-.64867,8.76714,3.293,16.20386,8.80388,16.61088,5.51.407,10.50275-6.36908,11.15141-15.13621.64866-8.76621-3.293-16.20294-8.80389-16.61089-5.51-.407-10.50273,6.36909-11.1514,15.13622" style="fill:#fff"/><path d="M105.5023,225.66965c-.169-.087-.339-.173-.502-.265a3.60342,3.60342,0,0,1,.502.265" style="fill:#f5a945"/><path d="M158.77419,268.406l-15.662-8.416a1.33975,1.33975,0,0,0-1.974,1.221l.543,17.772a1.34,1.34,0,0,0,2.044,1.099l15.12-9.357a1.33918,1.33918,0,0,0-.071-2.319" style="fill:#231815"/><path d="M140.8328,257.16375l-.001-.002Z" style="fill:#b186b7"/><rect x="83.81433" y="219.39599" width="135.54274" height="17.26196" transform="translate(-6.41169 4.3948) rotate(-1.62662)" style="fill:#fbfbfb;stroke:#fbfbfb;stroke-miterlimit:10;stroke-width:2.83464566929134px"/><polygon points="103.099 220.771 84.258 238.575 103.589 238.026 122.43 220.222 103.099 220.771" style="fill:#231815"/><polygon points="141.761 219.672 122.921 237.476 142.25 236.927 161.092 219.123 141.761 219.672" style="fill:#231815"/><polygon points="180.422 218.574 161.582 236.378 180.912 235.829 199.753 218.024 180.422 218.574" style="fill:#231815"/><polygon points="219.084 217.474 200.244 235.279 219.574 234.729 219.084 217.474" style="fill:#231815"/><polygon points="221.841 306.596 86.723 310.311 84.087 238.579 219.978 235.323 220.238 245.319 221.841 306.596" style="fill:#231815;stroke:#fff;stroke-miterlimit:10;stroke-width:2.83464566929134px"/><line x1="89.4307" y1="304.15267" x2="217.4447" y2="300.24367" style="fill:none;stroke:#fff;stroke-linecap:round;stroke-miterlimit:10;stroke-width:0.976999998092651px"/><path d="M108.1807,303.60287a2.0765,2.0765,0,1,1-2.077-2.077,2.07777,2.07777,0,0,1,2.077,2.077" style="fill:#fff"/><path d="M166.1338,268.00817a15.63576,15.63576,0,1,1-16.105-15.151,15.63394,15.63394,0,0,1,16.105,15.151" style="fill:#fff"/><path d="M160.53131,266.57746l-15.662-8.416a1.33975,1.33975,0,0,0-1.974,1.221l.543,17.772a1.34,1.34,0,0,0,2.044,1.099l15.12-9.357a1.33918,1.33918,0,0,0-.071-2.319" style="fill:#231815"/><path d="M101.98843,264.38637c-1.04785-3.288-4.7749-4.895-7.89014-5.419a8.67717,8.67717,0,0,0-2.95068.044,13.26136,13.26136,0,0,0-2.98974.78412L83.946,248.18471s-18.397,28.0025-.91064,26.95044a3.89327,3.89327,0,0,0,3.73632-.12689,3.5379,3.5379,0,0,0,.63282.05358,3.62057,3.62057,0,0,0,1.53515.10151,3.85131,3.85131,0,0,0,1.68067-.69642c.40967.05549.82422.10883,1.251.15644a9.87266,9.87266,0,0,0,4.80616-.355,4.05751,4.05751,0,0,0,2.52392-5.26923C101.06753,268.27174,102.61148,266.54884,101.98843,264.38637Z" style="fill:#231815;stroke:#fff;stroke-miterlimit:10"/><path d="M87.8395,273.982l.002-.0009a4.26932,4.26932,0,0,0,2.23931-1.03287c2.308.11047,5.44941.60985,7.5055-1.0194,1.83307-1.45141.6462-3.90337.6462-3.90337,2.3588-.653,3.4431-2.0424,3.10556-3.51716-.93-3.24054-6.35847-4.8599-9.06476-4.82308a16.5794,16.5794,0,0,0-4.11319.68889c-5.52907,4.02461-5.50218,13.47945-.32061,13.60789" style="fill:#fbfbfb;stroke:#231815;stroke-miterlimit:10;stroke-width:0.90959871408007px"/><path d="M93.98554,265.10119a13.09417,13.09417,0,0,1,4.122,3.46426l.89326-.8015a13.66147,13.66147,0,0,0-5.01529-2.66276" style="fill:#040000"/><path d="M207.9874,263.195c.09171-3.44974,3.22453-6.0302,6.071-7.4002a8.67745,8.67745,0,0,1,2.84643-.77865,13.26139,13.26139,0,0,1,3.08986-.07862l.81536-12.32419s25.46131,21.77867,8.37265,25.63306a3.89328,3.89328,0,0,1-3.62412.91762,3.5372,3.5372,0,0,1-.59292.22753,3.62068,3.62068,0,0,1-1.4463.52459,3.8513,3.8513,0,0,1-1.80807-.20133c-.37805.16726-.7614.33384-1.15806.49829a9.87236,9.87236,0,0,1-4.71518.99611,4.05751,4.05751,0,0,1-3.89025-4.359C209.9529,266.67075,207.99058,265.44542,207.9874,263.195Z" style="fill:#231815;stroke:#fff;stroke-miterlimit:10"/><path d="M224.24736,268.47537l-.00217-.00031a4.26928,4.26928,0,0,1-2.43825-.36909c-2.18615.74823-5.0646,2.10187-7.49279,1.109-2.1645-.88413-1.70666-3.56948-1.70666-3.56948-2.44733.02907-3.87538-1.00385-3.96147-2.5143-.0083-3.37133,4.75535-6.437,7.365-7.15459a16.57932,16.57932,0,0,1,4.14246-.48265c6.43048,2.32746,9.03511,11.4165,4.09385,12.98144" style="fill:#fbfbfb;stroke:#231815;stroke-miterlimit:10;stroke-width:0.90959871408007px"/><path d="M215.8732,261.65507a13.094,13.094,0,0,0-2.99548,4.47429l-1.081-.52134a13.66154,13.66154,0,0,1,4.07647-3.95295" style="fill:#040000"/></svg>