<svg id="圖層_1" data-name="圖層 1" xmlns="http://www.w3.org/2000/svg" viewBox="0 0 306.38298 306.38298"><rect width="306.38298" height="306.38298" rx="16" style="fill:#fff"/><path d="M171.15328,84.59185c7.36755-1.42239,11.562,3.857,15.47928-.12042C190.55094,80.494,190.89292,65.251,199.16822,61.653c8.27531-3.59688,19.6851.62258,19.97594,4.43417.28971,3.81274-6.02129,3.606-7.24146,10.1351-1.219,6.528,8.31735,36.8742-9.59772,48.23628-17.91394,11.36321-41.49358,5.64525-43.72486-2.53009-2.23356-8.17533,5.20671-35.91306,12.57316-37.33659" style="fill:#231815"/><path d="M139.82309,83.59185c-7.36757-1.42239-11.562,3.857-15.47928-.12042C120.42542,79.494,120.08346,64.251,111.80814,60.653c-8.2753-3.59688-19.6851.62258-19.97594,4.43417-.2897,3.81274,6.0213,3.606,7.24146,10.1351,1.219,6.528-8.31734,36.8742,9.59773,48.23628,17.91393,11.36321,41.49357,5.64525,43.72484-2.53009,2.23357-8.17533-5.20671-35.91306-12.57314-37.33659" style="fill:#231815"/><path d="M222.26422,124.87034c7.47094-17.18683,35.78014-21.57783,43.4965-19.36018,7.71748,2.21652-1.23834,20.09524-11.95172,28.73978a37.615,37.615,0,0,1-23.18881,8.05717Z" style="fill:#231815"/><path d="M227.72838,137.44781l-3.96158-9.44207c7.379-10.42367,31.63342-17.60265,34.69518-15.64743,3.27877,2.095-4.57958,11.76539-12.40273,18.10026-5.25785,4.2558-14.04893,5.48505-18.33087,6.98924" style="fill:#b5b5b5"/><path d="M85.34829,122.46557C76.29021,106.05924,47.69245,104.3585,40.21922,107.293c-7.47322,2.93339,3.12767,19.88846,14.61017,27.48439a37.60892,37.60892,0,0,0,23.8432,5.835Z" style="fill:#231815"/><path d="M81.09453,135.5018l3.05381-9.77268c-8.32984-9.6818-33.15236-14.542-36.01645-12.30731-3.06632,2.39489,5.668,11.28255,14.05348,16.85055,5.63617,3.74116,14.50565,4.13652,18.90916,5.22944" style="fill:#b5b5b5"/><path d="M238.09638,180.80468c5.19422,12.89922,5.29646,24.376.30334,34.09533-12.338,24.04316-52.83519,29.82133-84.65152,30.42687-31.81631-.60554-72.31465-6.38371-84.65378-30.42687-4.992-9.71929-4.89088-21.19611.3056-34.09533a1.27962,1.27962,0,0,0,.08977-.53623c-1.24971-23.64894-.38287-57.48069,21.58237-78.17009,13.91148-13.11279,34.99852-19.76008,62.676-19.76008,27.67639,0,48.75321,6.64729,62.66355,19.76008,21.9766,20.6894,22.84344,54.52115,21.58237,78.161a1.31473,1.31473,0,0,0,.10226.54532" style="fill:#231815"/><rect x="62.33352" y="80.57118" width="182.82368" height="168.52481" style="fill:none"/><path d="M107.88931,114.73036s5.22716-8.10376,13.95123-5.72478c7.63342,2.08133,8.7945,7.40961,8.7945,7.40961" style="fill:none;stroke:#fff;stroke-linecap:round;stroke-linejoin:round;stroke-width:2.475549159934552px"/><path d="M116.63076,122.55486c8.01628-1.10086,13.94555,3.31854,17.54356,10.04989,8.10376,15.16232,4.36942,42.05253-14.03417,43.9623-26.57324,2.75389-25.15085-51.03789-3.50939-54.01219" style="fill:#fff"/><path d="M116.63076,122.55486c8.01628-1.10086,13.94555,3.31854,17.54356,10.04989,8.10376,15.16232,4.36942,42.05253-14.03417,43.9623C93.56691,179.32094,94.9893,125.52916,116.63076,122.55486Z" style="fill:none;stroke:#fff;stroke-miterlimit:10;stroke-width:1.124733273748198px"/><path d="M113.20362,131.93207c15.13164,2.48578,12.99123,38.7215-.85207,39.4486-16.18934.85093-14.69879-42.00253.85207-39.4486" style="fill:#231815"/><path d="M176.85488,115.50528s5.22717-8.10375,13.95236-5.72477c7.63229,2.08133,8.79338,7.4096,8.79338,7.4096" style="fill:none;stroke:#fff;stroke-linecap:round;stroke-linejoin:round;stroke-width:2.475549159934552px"/><path d="M185.59634,122.55486c8.01628-1.10086,13.94555,3.31854,17.54355,10.04989,8.10377,15.16232,4.36943,42.05253-14.03417,43.9623-26.57324,2.75389-25.15085-51.03789-3.50938-54.01219" style="fill:#fff"/><path d="M185.59634,122.55486c8.01628-1.10086,13.94555,3.31854,17.54355,10.04989,8.10377,15.16232,4.36943,42.05253-14.03417,43.9623C162.53248,179.32094,163.95487,125.52916,185.59634,122.55486Z" style="fill:none;stroke:#fff;stroke-miterlimit:10;stroke-width:1.124733273748198px"/><path d="M182.16919,131.93207c15.13164,2.48578,12.99124,38.7215-.85207,39.4486-16.18934.85093-14.69879-42.00253.85207-39.4486" style="fill:#231815"/><path d="M145.00539,205.05314s2.41078,6.77566,8.44345,6.42461a12.05967,12.05967,0,0,0,9.03649-5.19081" style="fill:none;stroke:#fff;stroke-linecap:round;stroke-linejoin:round;stroke-width:1.872283251946269px"/><path d="M94.10531,200.76734c.80207,10.84061-4.07177,20.03615-10.88606,20.53944-6.81316.50329-12.98669-7.8754-13.78878-18.716-.80207-10.83947,4.07177-20.035,10.88606-20.53945,6.81315-.50329,12.98669,7.8754,13.78878,18.716" style="fill:#b5b5b5"/><path d="M213.38519,200.76734c-.80209,10.84061,4.07176,20.03615,10.886,20.53944,6.81317.50329,12.98671-7.8754,13.78878-18.716.80208-10.83947-4.07176-20.035-10.88605-20.53945-6.81315-.50329-12.98669,7.8754-13.78877,18.716" style="fill:#b5b5b5"/><path d="M102.21884,232.38268c-.192-.09884-.38514-.19655-.57033-.30107a4.09129,4.09129,0,0,1,.57033.30107" style="fill:#f5a945"/></svg>